<svg id="Layer_1" data-name="Layer 1" xmlns="http://www.w3.org/2000/svg" xmlns:xlink="http://www.w3.org/1999/xlink" viewBox="0 0 665.25 314.35"><defs><style>.cls-1,.cls-13,.cls-5,.cls-8{fill:#fff;}.cls-1{stroke:#fff;}.cls-1,.cls-10,.cls-12,.cls-13,.cls-14,.cls-15,.cls-16,.cls-17,.cls-4,.cls-5,.cls-9{stroke-miterlimit:10;}.cls-1,.cls-10,.cls-12,.cls-15,.cls-16,.cls-17,.cls-3,.cls-4,.cls-5,.cls-9{stroke-width:1.5px;}.cls-2{fill:#626c87;}.cls-10,.cls-12,.cls-16,.cls-18,.cls-3,.cls-4{fill:none;}.cls-15,.cls-16,.cls-3,.cls-4,.cls-5,.cls-9{stroke:#626c87;}.cls-16,.cls-3{stroke-linecap:round;}.cls-18,.cls-3{stroke-linejoin:round;}.cls-17,.cls-6{fill:#646e85;}.cls-7{fill:url(#linear-gradient);}.cls-9{fill:url(#Namnlös_övertoning_119);}.cls-10,.cls-13,.cls-14,.cls-18{stroke:#48a69e;}.cls-11,.cls-14{fill:#48a69e;}.cls-12,.cls-17{stroke:#646e85;}.cls-14{stroke-width:0;}.cls-15{fill:url(#Namnlös_övertoning_143);}.cls-19{isolation:isolate;}.cls-20{fill:#5c5c5c;}</style><linearGradient id="linear-gradient" x1="-1826.41" y1="1715.85" x2="-1752.2" y2="1715.85" gradientTransform="matrix(0.71, 0.7, 0.7, -0.71, 329.15, 2539.35)" gradientUnits="userSpaceOnUse"><stop offset="0" stop-color="#4aa69e"/><stop offset="0.18" stop-color="#7ec0ba" stop-opacity="0.71"/><stop offset="0.36" stop-color="#acd6d3" stop-opacity="0.46"/><stop offset="0.54" stop-color="#d0e8e6" stop-opacity="0.26"/><stop offset="0.71" stop-color="#eaf5f4" stop-opacity="0.12"/><stop offset="0.87" stop-color="#fafcfc" stop-opacity="0.03"/><stop offset="1" stop-color="#fff" stop-opacity="0"/></linearGradient><linearGradient id="Namnlös_övertoning_119" x1="598.59" y1="239.11" x2="598.59" y2="206.9" gradientUnits="userSpaceOnUse"><stop offset="0" stop-color="#4aa69e" stop-opacity="0.8"/><stop offset="0.09" stop-color="#5cafa8" stop-opacity="0.82"/><stop offset="0.54" stop-color="#b3dad6" stop-opacity="0.92"/><stop offset="0.85" stop-color="#eaf5f4" stop-opacity="0.98"/><stop offset="1" stop-color="#fff"/></linearGradient><linearGradient id="Namnlös_övertoning_143" x1="404.81" y1="226.27" x2="451.83" y2="226.27" gradientUnits="userSpaceOnUse"><stop offset="0" stop-color="#626c87" stop-opacity="0.64"/><stop offset="0.27" stop-color="#989fb0" stop-opacity="0.76"/><stop offset="0.51" stop-color="#c4c8d2" stop-opacity="0.86"/><stop offset="0.73" stop-color="#e4e6eb" stop-opacity="0.94"/><stop offset="0.9" stop-color="#f8f8fa" stop-opacity="0.98"/><stop offset="1" stop-color="#fff"/></linearGradient></defs><rect class="cls-1" width="665.25" height="314.35"/><circle class="cls-2" cx="38.94" cy="264.76" r="4.37"/><line class="cls-3" x1="34.58" y1="181.88" x2="43.31" y2="181.88"/><rect class="cls-4" x="12.6" y="171.32" width="55.31" height="105.1" rx="5.48"/><g id="user"><path class="cls-4" d="M53,235.43v-3a6,6,0,0,0-6-6H34.92a6,6,0,0,0-6,6h0v3.8"/><circle class="cls-5" cx="40.91" cy="214.36" r="6.04"/><path class="cls-4" d="M40.26,198.59A20.52,20.52,0,1,1,19.75,219.1h0"/></g><path class="cls-6" d="M29.22,297.11a3.65,3.65,0,0,1-1.16,2.44,3.85,3.85,0,0,1-2.61.86,3.49,3.49,0,0,1-2.83-1.27,5.07,5.07,0,0,1-1.06-3.38v-1a5.69,5.69,0,0,1,.49-2.44,3.73,3.73,0,0,1,1.41-1.62,4,4,0,0,1,2.1-.56,3.62,3.62,0,0,1,2.55.89,3.66,3.66,0,0,1,1.11,2.45H27.9a2.82,2.82,0,0,0-.74-1.73,2.23,2.23,0,0,0-1.6-.54,2.36,2.36,0,0,0-2,.93,4.33,4.33,0,0,0-.71,2.65v1a4.41,4.41,0,0,0,.67,2.58,2.22,2.22,0,0,0,1.9.95,2.53,2.53,0,0,0,1.68-.49,2.77,2.77,0,0,0,.77-1.73Z"/><path class="cls-6" d="M32.19,300.27H30.92v-10.5h1.27Z"/><path class="cls-6" d="M34.22,290.91a.74.74,0,0,1,.19-.52.69.69,0,0,1,.55-.21.7.7,0,0,1,.56.21.75.75,0,0,1,.2.52.69.69,0,0,1-.2.51.7.7,0,0,1-.56.21.69.69,0,0,1-.55-.21A.69.69,0,0,1,34.22,290.91Zm1.37,9.36H34.32v-7.4h1.27Z"/><path class="cls-6" d="M40.68,300.41a3.24,3.24,0,0,1-2.45-1,3.66,3.66,0,0,1-.94-2.64v-.24a4.44,4.44,0,0,1,.42-2,3.22,3.22,0,0,1,1.17-1.35,2.94,2.94,0,0,1,1.64-.49,2.74,2.74,0,0,1,2.24.95,4.07,4.07,0,0,1,.8,2.72v.52h-5a2.64,2.64,0,0,0,.64,1.77,2,2,0,0,0,1.56.68,2.23,2.23,0,0,0,1.13-.28,2.77,2.77,0,0,0,.81-.72l.78.6A3.11,3.11,0,0,1,40.68,300.41Zm-.16-6.63a1.67,1.67,0,0,0-1.28.55,2.79,2.79,0,0,0-.65,1.57H42.3v-.1a2.42,2.42,0,0,0-.52-1.49A1.57,1.57,0,0,0,40.52,293.78Z"/><path class="cls-6" d="M46.22,292.87l0,.93a2.71,2.71,0,0,1,2.22-1.06c1.56,0,2.35.88,2.36,2.64v4.89H49.58v-4.89a1.74,1.74,0,0,0-.37-1.19,1.48,1.48,0,0,0-1.11-.38,1.8,1.8,0,0,0-1.08.33,2.19,2.19,0,0,0-.73.86v5.27H45v-7.4Z"/><path class="cls-6" d="M54.47,291.08v1.79h1.38v1H54.47v4.59a1.05,1.05,0,0,0,.18.67.76.76,0,0,0,.63.22,2.6,2.6,0,0,0,.6-.08v1a3.67,3.67,0,0,1-1,.14,1.57,1.57,0,0,1-1.28-.52,2.22,2.22,0,0,1-.43-1.45v-4.59H51.86v-1H53.2v-1.79Z"/><path class="cls-7" d="M285.24,80.1,298.58,80l0-9.5a9.81,9.81,0,0,1-.1-19.14l0-9.51-65.23.32A3.8,3.8,0,0,0,229.4,46l.15,30.56a3.8,3.8,0,0,0,3.81,3.77l58.07-.28"/><path class="cls-8" d="M292.94,72.33l13.33-.06,0-9.5a9.81,9.81,0,0,1-.08-19.15l-.06-9.52-65.23.32a3.79,3.79,0,0,0-3.77,3.8l.15,30.57a3.81,3.81,0,0,0,3.81,3.77l58.07-.28"/><path class="cls-4" d="M292.94,72.33l13.33-.06,0-9.5a9.81,9.81,0,0,1-.08-19.15l-.06-9.52-65.23.32a3.79,3.79,0,0,0-3.77,3.8l.15,30.57a3.81,3.81,0,0,0,3.81,3.77l58.07-.28"/><circle class="cls-2" cx="287.47" cy="45.73" r="1.72" transform="translate(-0.22 1.41) rotate(-0.28)"/><circle class="cls-2" cx="287.5" cy="53.02" r="1.72" transform="translate(-0.26 1.41) rotate(-0.28)"/><circle class="cls-2" cx="287.54" cy="60.33" r="1.72" transform="translate(-0.29 1.41) rotate(-0.28)"/><line class="cls-4" x1="278.98" y1="80.76" x2="290.8" y2="80.7"/><path class="cls-4" d="M228.77,46.65l.15,30.56A3.8,3.8,0,0,0,232.73,81L279,80.76"/><path class="cls-4" d="M211.35,56.87H184.58a9.17,9.17,0,0,1-9.14-9.13v-8.2"/><polyline class="cls-4" points="200.38 47.49 205.89 52.18 211.42 56.87 205.89 61.56 200.38 66.25"/><path class="cls-4" d="M190.14,28.58V14.05a8.73,8.73,0,0,1,8.69-8.68h60.56a8.72,8.72,0,0,1,8.7,8.68v8"/><path class="cls-4" d="M268.09,93.28A8.73,8.73,0,0,1,259.4,102H198.83a8.73,8.73,0,0,1-8.69-8.69v-11"/><circle class="cls-2" cx="201.25" cy="15.28" r="2.32"/><circle class="cls-2" cx="211.42" cy="15.28" r="2.32"/><path class="cls-6" d="M195.18,117.33H192v8.88h-1.31v-8.88h-3.19v-1.07h7.7Z"/><path class="cls-6" d="M195.44,122.44a4.3,4.3,0,0,1,.43-2,3.11,3.11,0,0,1,1.19-1.34,3.2,3.2,0,0,1,1.74-.47,3.09,3.09,0,0,1,2.44,1,4,4,0,0,1,.94,2.78v.09a4.35,4.35,0,0,1-.42,1.94,3.14,3.14,0,0,1-1.18,1.34,3.26,3.26,0,0,1-1.77.48,3.09,3.09,0,0,1-2.43-1,4,4,0,0,1-.94-2.77Zm1.27.15a3.19,3.19,0,0,0,.57,2,1.94,1.94,0,0,0,3.06,0,3.45,3.45,0,0,0,.57-2.12,3.12,3.12,0,0,0-.58-2,1.82,1.82,0,0,0-1.53-.75,1.79,1.79,0,0,0-1.51.74A3.4,3.4,0,0,0,196.71,122.59Z"/><path class="cls-6" d="M205.83,122.78l-.8.83v2.6h-1.26v-10.5H205v6.35l.68-.81,2.3-2.44h1.54l-2.88,3.09,3.22,4.31H208.4Z"/><path class="cls-6" d="M213.93,126.35a3.22,3.22,0,0,1-2.45-1,3.66,3.66,0,0,1-.94-2.64v-.24a4.44,4.44,0,0,1,.42-2,3.22,3.22,0,0,1,1.17-1.35,2.94,2.94,0,0,1,1.64-.49,2.74,2.74,0,0,1,2.24.95,4.07,4.07,0,0,1,.8,2.72v.52h-5a2.64,2.64,0,0,0,.64,1.77,2,2,0,0,0,1.56.67,2.22,2.22,0,0,0,1.13-.27,2.77,2.77,0,0,0,.81-.72l.78.6A3.11,3.11,0,0,1,213.93,126.35Zm-.16-6.63a1.7,1.7,0,0,0-1.29.55,2.72,2.72,0,0,0-.64,1.56h3.71v-.09a2.42,2.42,0,0,0-.52-1.49A1.57,1.57,0,0,0,213.77,119.72Z"/><path class="cls-6" d="M219.47,118.81l0,.93a2.71,2.71,0,0,1,2.22-1.06c1.56,0,2.35.88,2.36,2.64v4.89h-1.26v-4.9a1.73,1.73,0,0,0-.37-1.18,1.49,1.49,0,0,0-1.12-.38,1.82,1.82,0,0,0-1.08.33,2.16,2.16,0,0,0-.72.86v5.27h-1.27v-7.4Z"/><path class="cls-6" d="M232.6,121.77a6.11,6.11,0,0,1-2.46-1.19,2.28,2.28,0,0,1-.77-1.75,2.39,2.39,0,0,1,.94-1.94,3.75,3.75,0,0,1,2.44-.77,4,4,0,0,1,1.83.4,3,3,0,0,1,1.25,1.09,2.81,2.81,0,0,1,.44,1.52H235a1.8,1.8,0,0,0-.58-1.42,2.35,2.35,0,0,0-1.62-.52,2.42,2.42,0,0,0-1.51.43,1.44,1.44,0,0,0-.54,1.19,1.28,1.28,0,0,0,.51,1,5.07,5.07,0,0,0,1.76.77,8,8,0,0,1,1.94.77,3,3,0,0,1,1,1,2.54,2.54,0,0,1,.34,1.32,2.33,2.33,0,0,1-.95,1.94,4,4,0,0,1-2.52.73,4.54,4.54,0,0,1-1.91-.4,3.24,3.24,0,0,1-1.37-1.07,2.67,2.67,0,0,1-.48-1.56h1.31a1.73,1.73,0,0,0,.67,1.43,2.79,2.79,0,0,0,1.78.52,2.58,2.58,0,0,0,1.59-.42,1.38,1.38,0,0,0,.56-1.16,1.37,1.37,0,0,0-.51-1.13A6.27,6.27,0,0,0,232.6,121.77Z"/><path class="cls-6" d="M240.84,126.35a3.24,3.24,0,0,1-2.45-1,3.66,3.66,0,0,1-.94-2.64v-.24a4.44,4.44,0,0,1,.42-2,3.18,3.18,0,0,1,1.18-1.35,2.89,2.89,0,0,1,1.63-.49,2.74,2.74,0,0,1,2.24.95,4.07,4.07,0,0,1,.8,2.72v.52h-5a2.64,2.64,0,0,0,.64,1.77,2,2,0,0,0,1.56.67A2.22,2.22,0,0,0,242,125a2.94,2.94,0,0,0,.82-.72l.77.6A3.11,3.11,0,0,1,240.84,126.35Zm-.16-6.63a1.67,1.67,0,0,0-1.28.55,2.73,2.73,0,0,0-.65,1.56h3.71v-.09a2.42,2.42,0,0,0-.52-1.49A1.57,1.57,0,0,0,240.68,119.72Z"/><path class="cls-6" d="M248.76,120a4,4,0,0,0-.62,0,1.67,1.67,0,0,0-1.69,1.06v5.25h-1.26v-7.4h1.23l0,.86a2,2,0,0,1,1.76-1,1.33,1.33,0,0,1,.56.09Z"/><path class="cls-6" d="M252.49,124.49l1.83-5.68h1.29l-2.65,7.4h-1l-2.68-7.4h1.29Z"/><path class="cls-6" d="M256.84,116.85a.78.78,0,0,1,.18-.52.85.85,0,0,1,1.12,0,.74.74,0,0,1,.19.52.69.69,0,0,1-.19.51.74.74,0,0,1-1.3-.51Zm1.36,9.36h-1.26v-7.4h1.26Z"/><path class="cls-6" d="M263.19,125.31a1.79,1.79,0,0,0,1.19-.41,1.46,1.46,0,0,0,.56-1h1.19a2.34,2.34,0,0,1-.43,1.21,2.83,2.83,0,0,1-1.08.91,3.11,3.11,0,0,1-1.43.35,3.07,3.07,0,0,1-2.4-1,4,4,0,0,1-.89-2.76v-.21a4.37,4.37,0,0,1,.4-1.92,3,3,0,0,1,1.13-1.31,3.25,3.25,0,0,1,1.76-.46,2.91,2.91,0,0,1,2.06.74,2.64,2.64,0,0,1,.88,1.94h-1.19a1.73,1.73,0,0,0-.55-1.18,1.65,1.65,0,0,0-1.2-.46,1.79,1.79,0,0,0-1.5.69,3.28,3.28,0,0,0-.53,2v.23a3.19,3.19,0,0,0,.53,2A1.77,1.77,0,0,0,263.19,125.31Z"/><path class="cls-6" d="M270.62,126.35a3.22,3.22,0,0,1-2.44-1,3.67,3.67,0,0,1-.95-2.64v-.24a4.44,4.44,0,0,1,.42-2,3.24,3.24,0,0,1,1.18-1.35,2.92,2.92,0,0,1,1.64-.49,2.74,2.74,0,0,1,2.24.95,4.12,4.12,0,0,1,.8,2.72v.52h-5a2.64,2.64,0,0,0,.64,1.77,2,2,0,0,0,1.55.67,2.24,2.24,0,0,0,1.14-.27,2.77,2.77,0,0,0,.81-.72l.77.6A3.11,3.11,0,0,1,270.62,126.35Zm-.15-6.63a1.7,1.7,0,0,0-1.29.55,2.72,2.72,0,0,0-.64,1.56h3.7v-.09a2.41,2.41,0,0,0-.51-1.49A1.57,1.57,0,0,0,270.47,119.72Z"/><polygon class="cls-9" points="607.89 206.9 589.3 206.9 580 223 589.3 239.11 607.89 239.11 617.19 223 607.89 206.9"/><polygon class="cls-4" points="607.89 206.9 589.3 206.9 580 223.01 589.3 239.11 607.89 239.11 617.19 223.01 607.89 206.9"/><circle class="cls-5" cx="598.59" cy="179.74" r="7.82"/><line class="cls-4" x1="598.59" y1="187.56" x2="598.59" y2="200.77"/><circle class="cls-5" cx="598.59" cy="266.27" r="7.82"/><line class="cls-4" x1="598.59" y1="258.45" x2="598.59" y2="245.24"/><circle class="cls-5" cx="560.18" cy="203.9" r="7.82"/><line class="cls-4" x1="567.13" y1="207.5" x2="578.86" y2="213.59"/><circle class="cls-5" cx="637" cy="243.74" r="7.82"/><line class="cls-4" x1="630.06" y1="240.14" x2="618.33" y2="234.06"/><circle class="cls-5" cx="559.77" cy="242.92" r="7.82"/><line class="cls-4" x1="566.79" y1="239.47" x2="578.64" y2="233.64"/><circle class="cls-5" cx="637.42" cy="204.72" r="7.82"/><line class="cls-4" x1="630.4" y1="208.18" x2="618.55" y2="214.01"/><path class="cls-6" d="M543.45,290.85h-4.17l-.94,2.61H537l3.8-10h1.15l3.8,10H544.4Zm-3.78-1.07h3.39l-1.7-4.66Z"/><path class="cls-6" d="M548.4,289.56v3.9h-1.32v-10h3.67a3.7,3.7,0,0,1,2.57.84,2.84,2.84,0,0,1,.92,2.21,2.8,2.8,0,0,1-.9,2.23,3.88,3.88,0,0,1-2.6.78Zm0-1.07h2.35a2.36,2.36,0,0,0,1.62-.5,1.82,1.82,0,0,0,.56-1.43,1.9,1.9,0,0,0-.56-1.43,2.17,2.17,0,0,0-1.54-.55H548.4Z"/><path class="cls-6" d="M557.32,293.46H556v-10h1.31Z"/><path class="cls-6" d="M562.72,290.78a2.43,2.43,0,0,1,.4-1.32,6.37,6.37,0,0,1,1.53-1.4,6.7,6.7,0,0,1-.89-1.3,2.28,2.28,0,0,1-.22-1,2.34,2.34,0,0,1,.67-1.78,2.51,2.51,0,0,1,1.82-.64,2.47,2.47,0,0,1,1.69.59,1.94,1.94,0,0,1,.67,1.51,2.15,2.15,0,0,1-.3,1.11,4,4,0,0,1-1.07,1.07l-.73.54,2.22,2.65a4.19,4.19,0,0,0,.46-2h1.14a4.76,4.76,0,0,1-.84,2.89l1.43,1.71h-1.52l-.67-.79a3.47,3.47,0,0,1-1.18.69,4.18,4.18,0,0,1-1.39.23,3.36,3.36,0,0,1-2.33-.77A2.57,2.57,0,0,1,562.72,290.78Zm3.22,1.78a2.65,2.65,0,0,0,1.84-.76l-2.42-2.91-.23.16a2.28,2.28,0,0,0-1.14,1.73,1.7,1.7,0,0,0,.52,1.3A2,2,0,0,0,565.94,292.56Zm-1.14-6.81a2.9,2.9,0,0,0,.81,1.64l.81-.57a2.07,2.07,0,0,0,.63-.63,1.35,1.35,0,0,0,.17-.72,1,1,0,0,0-.34-.76,1.25,1.25,0,0,0-.86-.3,1.13,1.13,0,0,0-.89.37A1.44,1.44,0,0,0,564.8,285.75Z"/><path class="cls-6" d="M576.35,286.06l0,.82a2.75,2.75,0,0,1,2.2-1,2.12,2.12,0,0,1,2.11,1.19,3,3,0,0,1,1-.86,2.81,2.81,0,0,1,1.4-.33c1.62,0,2.45.86,2.47,2.58v5h-1.26v-4.88a1.71,1.71,0,0,0-.36-1.19,1.62,1.62,0,0,0-1.22-.39,1.64,1.64,0,0,0-1.71,1.55v4.91H579.7v-4.85a1.41,1.41,0,0,0-1.58-1.61,1.68,1.68,0,0,0-1.7,1.06v5.4h-1.27v-7.4Z"/><path class="cls-6" d="M587.44,284.1a.77.77,0,0,1,.18-.52.73.73,0,0,1,.56-.21.7.7,0,0,1,.56.21.73.73,0,0,1,.19.52.72.72,0,0,1-.19.51.7.7,0,0,1-.56.21.73.73,0,0,1-.56-.21A.76.76,0,0,1,587.44,284.1Zm1.36,9.36h-1.26v-7.4h1.26Z"/><path class="cls-6" d="M593.79,292.56a1.85,1.85,0,0,0,1.19-.41,1.46,1.46,0,0,0,.56-1h1.19a2.28,2.28,0,0,1-.43,1.21,2.92,2.92,0,0,1-1.08.91,3.31,3.31,0,0,1-3.83-.66,4.07,4.07,0,0,1-.89-2.76v-.22a4.4,4.4,0,0,1,.4-1.92,3,3,0,0,1,1.13-1.3,3.26,3.26,0,0,1,1.76-.47,3,3,0,0,1,2.07.75,2.67,2.67,0,0,1,.87,1.93h-1.19a1.75,1.75,0,0,0-.55-1.18,1.69,1.69,0,0,0-1.2-.46,1.77,1.77,0,0,0-1.5.7,3.26,3.26,0,0,0-.53,2v.24a3.21,3.21,0,0,0,.53,2A1.77,1.77,0,0,0,593.79,292.56Z"/><path class="cls-6" d="M601.73,287.19a4,4,0,0,0-.62,0,1.67,1.67,0,0,0-1.69,1.06v5.25h-1.26v-7.4h1.23l0,.85a2,2,0,0,1,1.76-1,1.33,1.33,0,0,1,.56.1Z"/><path class="cls-6" d="M602.42,289.69a4.34,4.34,0,0,1,.43-2A3.14,3.14,0,0,1,604,286.4a3.2,3.2,0,0,1,1.74-.48,3.1,3.1,0,0,1,2.44,1.05,4,4,0,0,1,.93,2.78v.09a4.35,4.35,0,0,1-.41,1.94,3.12,3.12,0,0,1-1.18,1.33,3.26,3.26,0,0,1-1.77.48,3.15,3.15,0,0,1-2.44-1,4,4,0,0,1-.93-2.77Zm1.27.15a3.19,3.19,0,0,0,.57,2,1.94,1.94,0,0,0,3.06,0,3.47,3.47,0,0,0,.57-2.12,3.12,3.12,0,0,0-.58-2,1.91,1.91,0,0,0-3,0A3.38,3.38,0,0,0,603.69,289.84Z"/><path class="cls-6" d="M615.05,291.49a.92.92,0,0,0-.39-.79,3.8,3.8,0,0,0-1.35-.49,6.62,6.62,0,0,1-1.52-.49A2.08,2.08,0,0,1,611,289a1.62,1.62,0,0,1-.27-.94,1.9,1.9,0,0,1,.77-1.54,3,3,0,0,1,2-.63,3.1,3.1,0,0,1,2,.65,2.08,2.08,0,0,1,.78,1.66H615a1.12,1.12,0,0,0-.44-.89,1.64,1.64,0,0,0-1.11-.38,1.73,1.73,0,0,0-1.08.3,1,1,0,0,0-.39.79.78.78,0,0,0,.36.69,4.3,4.3,0,0,0,1.31.44,7.28,7.28,0,0,1,1.54.51,2.26,2.26,0,0,1,.87.71,1.72,1.72,0,0,1,.28,1,1.89,1.89,0,0,1-.79,1.59,3.4,3.4,0,0,1-2.06.59,3.7,3.7,0,0,1-1.57-.31,2.52,2.52,0,0,1-1.07-.88,2.11,2.11,0,0,1-.39-1.22h1.27a1.3,1.3,0,0,0,.51,1,1.94,1.94,0,0,0,1.25.37,2.06,2.06,0,0,0,1.15-.29A.89.89,0,0,0,615.05,291.49Z"/><path class="cls-6" d="M621,293.59a3.24,3.24,0,0,1-2.45-1,3.63,3.63,0,0,1-.94-2.64v-.23a4.41,4.41,0,0,1,.42-2,3.31,3.31,0,0,1,1.17-1.36,3,3,0,0,1,1.64-.49,2.77,2.77,0,0,1,2.24.95,4.09,4.09,0,0,1,.8,2.72v.53h-5a2.64,2.64,0,0,0,.64,1.77,2,2,0,0,0,1.56.67,2.22,2.22,0,0,0,1.13-.27,3,3,0,0,0,.81-.73l.78.6A3.09,3.09,0,0,1,621,293.59Zm-.16-6.63a1.67,1.67,0,0,0-1.28.56,2.73,2.73,0,0,0-.65,1.56h3.71V289a2.45,2.45,0,0,0-.52-1.5A1.6,1.6,0,0,0,620.87,287Z"/><path class="cls-6" d="M629,287.19a4,4,0,0,0-.62,0,1.67,1.67,0,0,0-1.69,1.06v5.25h-1.26v-7.4h1.23l0,.85a2,2,0,0,1,1.76-1,1.33,1.33,0,0,1,.56.1Z"/><path class="cls-6" d="M632.68,291.74l1.83-5.68h1.29l-2.65,7.4h-1l-2.68-7.4h1.3Z"/><path class="cls-6" d="M637,284.1a.77.77,0,0,1,.19-.52.85.85,0,0,1,1.12,0,.73.73,0,0,1,.19.52.78.78,0,0,1-1.31.51A.76.76,0,0,1,637,284.1Zm1.37,9.36h-1.26v-7.4h1.26Z"/><path class="cls-6" d="M643.38,292.56a1.82,1.82,0,0,0,1.18-.41,1.39,1.39,0,0,0,.56-1h1.2a2.3,2.3,0,0,1-.44,1.21,2.81,2.81,0,0,1-1.07.91,3.1,3.1,0,0,1-1.43.34,3,3,0,0,1-2.4-1,4,4,0,0,1-.89-2.76v-.22a4.54,4.54,0,0,1,.39-1.92,3.08,3.08,0,0,1,1.14-1.3,3.25,3.25,0,0,1,1.75-.47,2.94,2.94,0,0,1,2.07.75,2.64,2.64,0,0,1,.88,1.93h-1.2a1.7,1.7,0,0,0-.54-1.18,1.72,1.72,0,0,0-1.21-.46,1.75,1.75,0,0,0-1.49.7,3.26,3.26,0,0,0-.53,2v.24a3.21,3.21,0,0,0,.53,2A1.77,1.77,0,0,0,643.38,292.56Z"/><path class="cls-6" d="M650.81,293.59a3.2,3.2,0,0,1-2.44-1,3.63,3.63,0,0,1-1-2.64v-.23a4.41,4.41,0,0,1,.42-2,3.26,3.26,0,0,1,1.18-1.36,3,3,0,0,1,1.64-.49,2.79,2.79,0,0,1,2.24.95,4.14,4.14,0,0,1,.8,2.72v.53h-5a2.64,2.64,0,0,0,.64,1.77,2,2,0,0,0,1.55.67,2.24,2.24,0,0,0,1.14-.27,3,3,0,0,0,.81-.73l.77.6A3.09,3.09,0,0,1,650.81,293.59Zm-.15-6.63a1.71,1.71,0,0,0-1.29.56,2.66,2.66,0,0,0-.64,1.56h3.7V289a2.39,2.39,0,0,0-.52-1.5A1.59,1.59,0,0,0,650.66,287Z"/><path class="cls-6" d="M659.47,291.49a.92.92,0,0,0-.39-.79,3.8,3.8,0,0,0-1.35-.49,6.62,6.62,0,0,1-1.52-.49,2.08,2.08,0,0,1-.83-.69,1.62,1.62,0,0,1-.27-.94,1.92,1.92,0,0,1,.76-1.54,3,3,0,0,1,2-.63,3.1,3.1,0,0,1,2,.65,2.08,2.08,0,0,1,.78,1.66h-1.27a1.12,1.12,0,0,0-.44-.89,1.64,1.64,0,0,0-1.11-.38,1.73,1.73,0,0,0-1.08.3,1,1,0,0,0-.39.79.78.78,0,0,0,.36.69,4.3,4.3,0,0,0,1.31.44,7.28,7.28,0,0,1,1.54.51,2.26,2.26,0,0,1,.87.71,1.72,1.72,0,0,1,.28,1,1.89,1.89,0,0,1-.79,1.59,3.4,3.4,0,0,1-2.06.59,3.7,3.7,0,0,1-1.57-.31,2.52,2.52,0,0,1-1.07-.88,2.11,2.11,0,0,1-.39-1.22h1.27a1.3,1.3,0,0,0,.51,1,1.94,1.94,0,0,0,1.25.37,2.06,2.06,0,0,0,1.15-.29A.89.89,0,0,0,659.47,291.49Z"/><path class="cls-10" d="M404,173.19V59.57a6,6,0,0,0-6-6H317.39"/><path class="cls-11" d="M324.52,57.6v-9a.52.52,0,0,0-.82-.43l-6.31,4.48a.52.52,0,0,0,0,.85L323.7,58A.52.52,0,0,0,324.52,57.6Z"/><path class="cls-12" d="M287.54,88V218.11a3,3,0,0,0,3,3h54.51"/><path class="cls-6" d="M341.37,225.88v-9a.52.52,0,0,1,.82-.42L348.5,221a.51.51,0,0,1,0,.85l-6.31,4.47A.52.52,0,0,1,341.37,225.88Z"/><polyline class="cls-10" points="67.92 253.12 337.55 253.12 345.05 253.12"/><path class="cls-11" d="M341.37,257.31v-8.95a.52.52,0,0,1,.82-.43l6.31,4.48a.51.51,0,0,1,0,.85l-6.31,4.48A.52.52,0,0,1,341.37,257.31Z"/><circle class="cls-6" cx="187.14" cy="252.02" r="7.6"/><path class="cls-8" d="M190.32,256.51h-6.06v-.84l3.2-3.55a7.77,7.77,0,0,0,1-1.32,2.15,2.15,0,0,0,.27-1,1.64,1.64,0,0,0-.44-1.19,1.51,1.51,0,0,0-1.16-.46,1.84,1.84,0,0,0-1.37.5,1.91,1.91,0,0,0-.48,1.39h-1.18a2.75,2.75,0,0,1,.83-2.07,3,3,0,0,1,2.2-.78,2.93,2.93,0,0,1,2,.67,2.3,2.3,0,0,1,.75,1.8,5.29,5.29,0,0,1-1.74,3.25l-2.47,2.69h4.64Z"/><circle class="cls-6" cx="287.54" cy="140.2" r="7.6"/><path class="cls-8" d="M286.36,139.51h.89a1.94,1.94,0,0,0,1.3-.44,1.46,1.46,0,0,0,.48-1.15,1.43,1.43,0,0,0-1.62-1.62,1.66,1.66,0,0,0-1.21.43,1.49,1.49,0,0,0-.46,1.15h-1.17a2.33,2.33,0,0,1,.8-1.82,3.3,3.3,0,0,1,4.09,0,2.5,2.5,0,0,1,.74,1.93,2,2,0,0,1-.39,1.16,2.35,2.35,0,0,1-1.06.85,2.29,2.29,0,0,1,1.18.8,2.26,2.26,0,0,1,.41,1.36,2.54,2.54,0,0,1-.81,2,3.07,3.07,0,0,1-2.11.73,3.12,3.12,0,0,1-2.12-.71,2.35,2.35,0,0,1-.82-1.86h1.19a1.49,1.49,0,0,0,.47,1.17,1.82,1.82,0,0,0,1.28.44,1.77,1.77,0,0,0,1.3-.45,1.7,1.7,0,0,0,.45-1.27,1.56,1.56,0,0,0-.5-1.24,2.08,2.08,0,0,0-1.42-.44h-.89Z"/><circle class="cls-6" cx="403.53" cy="140.2" r="7.6"/><path class="cls-8" d="M402.36,139.51h.88a2,2,0,0,0,1.31-.44,1.48,1.48,0,0,0,.47-1.15,1.43,1.43,0,0,0-1.62-1.62,1.68,1.68,0,0,0-1.21.43,1.53,1.53,0,0,0-.46,1.15h-1.17a2.36,2.36,0,0,1,.8-1.82,3.3,3.3,0,0,1,4.09,0,2.5,2.5,0,0,1,.75,1.93,2,2,0,0,1-.39,1.16,2.38,2.38,0,0,1-1.07.85,2.29,2.29,0,0,1,1.18.8,2.2,2.2,0,0,1,.42,1.36,2.52,2.52,0,0,1-.82,2,3.06,3.06,0,0,1-2.11.73,3.14,3.14,0,0,1-2.12-.71,2.35,2.35,0,0,1-.81-1.86h1.18a1.53,1.53,0,0,0,.47,1.17,1.84,1.84,0,0,0,1.28.44,1.75,1.75,0,0,0,1.3-.45,1.7,1.7,0,0,0,.45-1.27,1.56,1.56,0,0,0-.49-1.24,2.11,2.11,0,0,0-1.43-.44h-.88Z"/><path class="cls-13" d="M152.53,251.69l4.38-4.39-3.12-3.12a4.57,4.57,0,0,1-6.3-6.3l-3.12-3.12-21.45,21.45a1.77,1.77,0,0,0,0,2.5l10,10.05a1.77,1.77,0,0,0,2.49,0l19.1-19.1"/><circle class="cls-14" cx="142.02" cy="244.7" r="0.8"/><circle class="cls-14" cx="144.42" cy="247.1" r="0.8"/><circle class="cls-14" cx="146.82" cy="249.5" r="0.8"/><path class="cls-6" d="M131.21,283.44a6.08,6.08,0,0,1-.49,2.55,3.72,3.72,0,0,1-1.39,1.67,3.88,3.88,0,0,1-2.11.57,3.74,3.74,0,0,1-2.08-.58,3.81,3.81,0,0,1-1.42-1.64,6,6,0,0,1-.51-2.48v-.72a5.92,5.92,0,0,1,.5-2.53,3.67,3.67,0,0,1,3.5-2.27,3.92,3.92,0,0,1,2.11.57,3.83,3.83,0,0,1,1.4,1.68,6.14,6.14,0,0,1,.49,2.55Zm-1.3-.64a4.5,4.5,0,0,0-.71-2.72,2.36,2.36,0,0,0-2-.95,2.33,2.33,0,0,0-2,.95,4.39,4.39,0,0,0-.74,2.63v.73a4.51,4.51,0,0,0,.72,2.7,2.36,2.36,0,0,0,2,1,2.31,2.31,0,0,0,2-.93,4.52,4.52,0,0,0,.72-2.65Z"/><path class="cls-6" d="M139.23,284.48a4.47,4.47,0,0,1-.77,2.72,2.47,2.47,0,0,1-2.09,1,2.7,2.7,0,0,1-2.12-.85v3.56H133V280.7h1.16l.06.82a2.61,2.61,0,0,1,2.15-1,2.54,2.54,0,0,1,2.11,1,4.51,4.51,0,0,1,.77,2.79Zm-1.26-.14a3.23,3.23,0,0,0-.54-2,1.71,1.71,0,0,0-1.46-.72,1.85,1.85,0,0,0-1.72,1v3.54a1.87,1.87,0,0,0,1.73,1,1.72,1.72,0,0,0,1.45-.72A3.55,3.55,0,0,0,138,284.34Z"/><path class="cls-6" d="M145.4,288.1a2.7,2.7,0,0,1-.17-.78,2.82,2.82,0,0,1-2.11.91,2.55,2.55,0,0,1-1.79-.62,2,2,0,0,1-.7-1.57,2.09,2.09,0,0,1,.87-1.79,4.14,4.14,0,0,1,2.48-.64h1.23V283a1.47,1.47,0,0,0-.4-1.06,1.59,1.59,0,0,0-1.17-.39,1.81,1.81,0,0,0-1.13.34,1,1,0,0,0-.46.83h-1.27a1.74,1.74,0,0,1,.39-1.07,2.71,2.71,0,0,1,1.07-.82,3.56,3.56,0,0,1,1.48-.3,3,3,0,0,1,2,.64,2.32,2.32,0,0,1,.75,1.76v3.41a4.29,4.29,0,0,0,.26,1.62v.11Zm-2.09-1a2.15,2.15,0,0,0,1.12-.31,1.82,1.82,0,0,0,.78-.8v-1.51h-1c-1.55,0-2.33.45-2.33,1.36a1.16,1.16,0,0,0,.4.93A1.53,1.53,0,0,0,143.31,287.13Z"/><path class="cls-6" d="M148.15,284.34a4.28,4.28,0,0,1,.8-2.76,2.57,2.57,0,0,1,2.14-1,2.6,2.6,0,0,1,2.07.88l.06-.74h1.16v10.24h-1.26v-3.53a2.65,2.65,0,0,1-2,.82,2.57,2.57,0,0,1-2.14-1,4.44,4.44,0,0,1-.79-2.77Zm1.26.14a3.3,3.3,0,0,0,.54,2,1.71,1.71,0,0,0,1.44.72,1.89,1.89,0,0,0,1.73-1v-3.62a1.91,1.91,0,0,0-1.71-1,1.72,1.72,0,0,0-1.46.73A3.57,3.57,0,0,0,149.41,284.48Z"/><path class="cls-6" d="M161,287.36a2.7,2.7,0,0,1-2.17.87,2.29,2.29,0,0,1-1.8-.69,3,3,0,0,1-.63-2V280.7h1.27v4.78c0,1.12.45,1.68,1.37,1.68a1.89,1.89,0,0,0,1.92-1.08V280.7h1.27v7.4H161Z"/><path class="cls-6" d="M167.2,288.23a3.22,3.22,0,0,1-2.45-1,3.63,3.63,0,0,1-.94-2.64v-.23a4.48,4.48,0,0,1,.42-2,3.35,3.35,0,0,1,1.17-1.35,3,3,0,0,1,1.64-.49,2.77,2.77,0,0,1,2.24.95,4.09,4.09,0,0,1,.8,2.72v.53h-5a2.64,2.64,0,0,0,.64,1.77,2,2,0,0,0,1.56.67,2.22,2.22,0,0,0,1.13-.27,3,3,0,0,0,.81-.73l.78.6A3.09,3.09,0,0,1,167.2,288.23ZM167,281.6a1.71,1.71,0,0,0-1.29.56,2.72,2.72,0,0,0-.64,1.56h3.71v-.1a2.42,2.42,0,0,0-.52-1.49A1.6,1.6,0,0,0,167,281.6Z"/><path class="cls-6" d="M181.81,279.22h-3.2v8.88h-1.3v-8.88h-3.2v-1.08h7.7Z"/><path class="cls-6" d="M182.08,284.33a4.31,4.31,0,0,1,.43-2A3.17,3.17,0,0,1,183.7,281a3.24,3.24,0,0,1,1.74-.47,3.11,3.11,0,0,1,2.44,1.05,4,4,0,0,1,.93,2.78v.09a4.35,4.35,0,0,1-.41,1.94,3.18,3.18,0,0,1-1.18,1.33,3.31,3.31,0,0,1-1.77.48,3.15,3.15,0,0,1-2.44-1,4,4,0,0,1-.93-2.77Zm1.27.15a3.19,3.19,0,0,0,.57,2,1.84,1.84,0,0,0,1.53.74,1.81,1.81,0,0,0,1.53-.76,3.42,3.42,0,0,0,.57-2.11,3.12,3.12,0,0,0-.58-2,1.82,1.82,0,0,0-1.53-.76,1.8,1.8,0,0,0-1.51.75A3.36,3.36,0,0,0,183.35,284.48Z"/><path class="cls-6" d="M192.46,284.67l-.79.83v2.6h-1.26V277.6h1.26V284l.68-.82,2.3-2.43h1.54l-2.88,3.09,3.21,4.31H195Z"/><path class="cls-6" d="M200.56,288.23a3.22,3.22,0,0,1-2.44-1,3.63,3.63,0,0,1-1-2.64v-.23a4.48,4.48,0,0,1,.42-2,3.37,3.37,0,0,1,1.18-1.35,3,3,0,0,1,1.64-.49,2.77,2.77,0,0,1,2.24.95,4.14,4.14,0,0,1,.8,2.72v.53h-5a2.64,2.64,0,0,0,.64,1.77,2,2,0,0,0,1.55.67,2.24,2.24,0,0,0,1.14-.27,3,3,0,0,0,.81-.73l.77.6A3.09,3.09,0,0,1,200.56,288.23Zm-.15-6.63a1.71,1.71,0,0,0-1.29.56,2.66,2.66,0,0,0-.64,1.56h3.7v-.1a2.36,2.36,0,0,0-.52-1.49A1.57,1.57,0,0,0,200.41,281.6Z"/><path class="cls-6" d="M206.11,280.7l0,.93a2.69,2.69,0,0,1,2.21-1.07c1.57,0,2.35.88,2.37,2.65v4.89h-1.27v-4.9a1.67,1.67,0,0,0-.36-1.18,1.45,1.45,0,0,0-1.12-.38,1.88,1.88,0,0,0-1.08.32,2.19,2.19,0,0,0-.72.87v5.27h-1.27v-7.4Z"/><rect class="cls-5" x="353.9" y="217.87" width="47.02" height="16.82"/><rect class="cls-15" x="404.81" y="217.87" width="47.02" height="16.82"/><path class="cls-5" d="M357.15,203a3.23,3.23,0,0,0-3.21,3.21v8h30.69V203Z"/><path class="cls-5" d="M448.62,203a3.22,3.22,0,0,1,3.21,3.21v8H421.15V203Z"/><rect class="cls-5" x="388.05" y="202.96" width="29.42" height="11.18"/><path class="cls-5" d="M448.62,249.58a3.21,3.21,0,0,0,3.21-3.21v-8H421.15v11.18Z"/><path class="cls-5" d="M357.15,249.58a3.22,3.22,0,0,1-3.21-3.21v-8h30.69v11.18Z"/><rect class="cls-5" x="388.31" y="238.4" width="29.42" height="11.18"/><path class="cls-16" d="M439.77,199.43c-6.83-10.72-21.22-18.12-37.86-18.12s-31,7.4-37.85,18.12"/><path class="cls-16" d="M364.06,253.12c6.83,10.72,21.22,18.11,37.86,18.11s31-7.39,37.85-18.11"/><path class="cls-6" d="M363.7,284.07h-2.34v4H360v-10h3.3a3.92,3.92,0,0,1,2.59.77,2.76,2.76,0,0,1,.9,2.23,2.71,2.71,0,0,1-.5,1.62,3,3,0,0,1-1.4,1l2.34,4.22v.09h-1.41ZM361.36,283h2a2.29,2.29,0,0,0,1.56-.51,1.73,1.73,0,0,0,.57-1.36,1.77,1.77,0,0,0-.55-1.41,2.28,2.28,0,0,0-1.59-.5h-2Z"/><path class="cls-6" d="M371.54,288.23a3.23,3.23,0,0,1-2.44-1,3.68,3.68,0,0,1-1-2.65v-.23a4.41,4.41,0,0,1,.42-2,3.26,3.26,0,0,1,1.18-1.36,3,3,0,0,1,1.64-.49,2.79,2.79,0,0,1,2.24.95,4.14,4.14,0,0,1,.8,2.72v.53h-5a2.59,2.59,0,0,0,.64,1.77,2,2,0,0,0,1.55.67,2.24,2.24,0,0,0,1.14-.27,2.8,2.8,0,0,0,.81-.73l.77.6A3.09,3.09,0,0,1,371.54,288.23Zm-.15-6.63a1.7,1.7,0,0,0-1.29.56,2.66,2.66,0,0,0-.64,1.56h3.7v-.1a2.36,2.36,0,0,0-.52-1.49A1.59,1.59,0,0,0,371.39,281.6Z"/><path class="cls-6" d="M378.24,286.38l1.83-5.68h1.3l-2.66,7.4h-1l-2.68-7.4h1.29Z"/><path class="cls-6" d="M385.65,288.23a3.27,3.27,0,0,1-2.45-1,3.71,3.71,0,0,1-.94-2.65v-.23a4.41,4.41,0,0,1,.42-2,3.26,3.26,0,0,1,1.18-1.36,3,3,0,0,1,1.63-.49,2.79,2.79,0,0,1,2.25.95,4.14,4.14,0,0,1,.8,2.72v.53h-5a2.63,2.63,0,0,0,.63,1.77,2,2,0,0,0,1.56.67,2.24,2.24,0,0,0,1.14-.27,2.94,2.94,0,0,0,.81-.73l.77.6A3.09,3.09,0,0,1,385.65,288.23Zm-.16-6.63a1.69,1.69,0,0,0-1.28.56,2.66,2.66,0,0,0-.64,1.56h3.7v-.1a2.36,2.36,0,0,0-.52-1.49A1.6,1.6,0,0,0,385.49,281.6Z"/><path class="cls-6" d="M393.57,281.83a4,4,0,0,0-.62,0,1.67,1.67,0,0,0-1.69,1.06v5.25H390v-7.4h1.23l0,.85a2,2,0,0,1,1.76-1,1.17,1.17,0,0,1,.56.1Z"/><path class="cls-6" d="M399,286.13a.94.94,0,0,0-.38-.79,3.8,3.8,0,0,0-1.35-.49,6.46,6.46,0,0,1-1.52-.49,2.11,2.11,0,0,1-.84-.69,1.62,1.62,0,0,1-.27-.94,1.93,1.93,0,0,1,.77-1.54,3,3,0,0,1,2-.63,3.1,3.1,0,0,1,2,.65,2.08,2.08,0,0,1,.78,1.66H399a1.15,1.15,0,0,0-.44-.89,1.68,1.68,0,0,0-1.11-.38,1.73,1.73,0,0,0-1.08.3,1,1,0,0,0-.39.79.78.78,0,0,0,.36.69,4.6,4.6,0,0,0,1.31.44,6.49,6.49,0,0,1,1.53.51,2.18,2.18,0,0,1,.87.71,1.71,1.71,0,0,1,.29,1,1.89,1.89,0,0,1-.79,1.59,3.34,3.34,0,0,1-2.06.6,3.67,3.67,0,0,1-1.57-.31,2.46,2.46,0,0,1-1.07-.88,2.11,2.11,0,0,1-.39-1.22h1.26a1.37,1.37,0,0,0,.51,1,2,2,0,0,0,1.26.37,2.06,2.06,0,0,0,1.15-.29A.88.88,0,0,0,399,286.13Z"/><path class="cls-6" d="M405,288.23a3.25,3.25,0,0,1-2.44-1,3.68,3.68,0,0,1-.95-2.65v-.23a4.28,4.28,0,0,1,.43-2,3.24,3.24,0,0,1,1.17-1.36,3,3,0,0,1,1.64-.49,2.77,2.77,0,0,1,2.24.95,4.14,4.14,0,0,1,.8,2.72v.53h-5a2.64,2.64,0,0,0,.64,1.77,2,2,0,0,0,1.55.67,2.24,2.24,0,0,0,1.14-.27,2.8,2.8,0,0,0,.81-.73l.77.6A3.09,3.09,0,0,1,405,288.23Zm-.15-6.63a1.71,1.71,0,0,0-1.29.56,2.72,2.72,0,0,0-.64,1.56h3.71v-.1a2.42,2.42,0,0,0-.52-1.49A1.6,1.6,0,0,0,404.87,281.6Z"/><path class="cls-6" d="M414.35,284.2v3.9H413v-10h3.67a3.67,3.67,0,0,1,2.56.84,3.16,3.16,0,0,1,0,4.44,3.88,3.88,0,0,1-2.6.78Zm0-1.07h2.36a2.35,2.35,0,0,0,1.61-.5,1.82,1.82,0,0,0,.56-1.43,1.9,1.9,0,0,0-.56-1.43,2.22,2.22,0,0,0-1.54-.55h-2.43Z"/><path class="cls-6" d="M425.25,281.83a4.17,4.17,0,0,0-.63,0,1.65,1.65,0,0,0-1.68,1.06v5.25h-1.27v-7.4h1.23l0,.85a2,2,0,0,1,1.77-1,1.22,1.22,0,0,1,.56.1Z"/><path class="cls-6" d="M425.94,284.33a4.44,4.44,0,0,1,.42-2,3.14,3.14,0,0,1,2.93-1.81,3.1,3.1,0,0,1,2.44,1.05,4,4,0,0,1,.94,2.78v.09a4.35,4.35,0,0,1-.42,1.94,3.06,3.06,0,0,1-1.18,1.33,3.25,3.25,0,0,1-1.76.48,3.12,3.12,0,0,1-2.44-1,4,4,0,0,1-.93-2.77Zm1.27.15a3.19,3.19,0,0,0,.57,2,1.94,1.94,0,0,0,3.06,0,3.54,3.54,0,0,0,.56-2.12,3.18,3.18,0,0,0-.57-2,1.84,1.84,0,0,0-1.54-.76,1.81,1.81,0,0,0-1.51.75A3.42,3.42,0,0,0,427.21,284.48Z"/><path class="cls-6" d="M436.59,283.4l1.64-2.7h1.48l-2.42,3.66,2.5,3.74h-1.47l-1.71-2.77-1.71,2.77h-1.46l2.49-3.74-2.42-3.66H435Z"/><path class="cls-6" d="M443.47,286.24l1.72-5.54h1.36l-3,8.54c-.46,1.23-1.19,1.84-2.19,1.84l-.24,0-.47-.09v-1l.34,0a1.7,1.7,0,0,0,1-.26,1.87,1.87,0,0,0,.59-1l.28-.76-2.64-7.31h1.38Z"/><path class="cls-17" d="M451.68,226.4h90.43"/><path class="cls-6" d="M538.94,230.88v-9a.52.52,0,0,1,.82-.42l6.31,4.48a.51.51,0,0,1,0,.84l-6.31,4.48A.52.52,0,0,1,538.94,230.88Z"/><circle class="cls-6" cx="491.51" cy="226.4" r="7.6"/><path class="cls-8" d="M493.16,227.8h1.28v.95h-1.28v2.15H492v-2.15h-4.21v-.69l4.14-6.4h1.25Zm-4.06,0H492v-4.54l-.14.26Z"/><g id="Graphic_56" data-name="Graphic 56"><path class="cls-8" d="M503.19,210.77h7.61v-5a5.11,5.11,0,0,1,0-10v-5H473.57a2.08,2.08,0,0,0-2.16,2v16a2.08,2.08,0,0,0,2.16,2h33.15"/><path class="cls-18" d="M503.19,210.77h7.61v-5a5.11,5.11,0,0,1,0-10v-5H473.57a2.08,2.08,0,0,0-2.16,2v16a2.08,2.08,0,0,0,2.16,2h33.15"/><g class="cls-19"><g class="cls-19"><path class="cls-20" d="M482.12,196.77h1v5.14a2.18,2.18,0,0,1-.62,1.64,2.36,2.36,0,0,1-1.67.58,2.39,2.39,0,0,1-1.69-.55,2,2,0,0,1-.6-1.55h.95a1.32,1.32,0,0,0,.35,1,1.31,1.31,0,0,0,1,.35,1.3,1.3,0,0,0,1-.37,1.46,1.46,0,0,0,.37-1Z"/><path class="cls-20" d="M486.28,201.74l.14,1,.21-.86,1.43-5.07h.81l1.4,5.07.2.88.16-1,1.13-5h1L491,204h-.88l-1.49-5.29-.12-.56-.11.56L486.81,204h-.88l-1.75-7.26h.95Z"/><path class="cls-20" d="M498.87,197.55h-2.33V204h-1v-6.48h-2.34v-.78h5.62Z"/></g></g></g><path class="cls-12" d="M40.77,165.86v-109a3.66,3.66,0,0,1,3.66-3.66H174.11"/><path class="cls-6" d="M45.25,162.19h-9a.52.52,0,0,0-.43.82l4.48,6.31a.52.52,0,0,0,.85,0L45.68,163A.52.52,0,0,0,45.25,162.19Z"/><circle class="cls-6" cx="40.26" cy="87.94" r="7.6"/><path class="cls-8" d="M41.4,92.64H40.21V84.76l-2.38.88V84.57l3.38-1.27h.19Z"/><path class="cls-13" d="M53.13,125.89l4.39-4.39-3.13-3.13a4.56,4.56,0,0,1-6.29-6.29L45,109,23.52,130.41a1.76,1.76,0,0,0,0,2.49l10.05,10a1.76,1.76,0,0,0,2.49,0l19.1-19.1"/><circle class="cls-14" cx="42.62" cy="118.89" r="0.8"/><circle class="cls-14" cx="45.02" cy="121.3" r="0.8"/><circle class="cls-14" cx="47.42" cy="123.7" r="0.8"/><path class="cls-13" d="M416.84,101.64l4.39-4.38-3.13-3.13a4.56,4.56,0,0,1-6.29-6.3l-3.13-3.12-21.45,21.45a1.77,1.77,0,0,0,0,2.5l10,10a1.77,1.77,0,0,0,2.49,0l19.1-19.1"/><circle class="cls-14" cx="406.33" cy="94.65" r="0.8"/><circle class="cls-14" cx="408.73" cy="97.05" r="0.8"/><circle class="cls-14" cx="411.13" cy="99.45" r="0.8"/><g id="Graphic_56-2" data-name="Graphic 56"><path class="cls-8" d="M297.9,185.87h7.61v-5a5.11,5.11,0,0,1,0-10v-5H268.28a2.08,2.08,0,0,0-2.16,2v16a2.08,2.08,0,0,0,2.16,2h33.14"/><path class="cls-18" d="M297.9,185.87h7.61v-5a5.11,5.11,0,0,1,0-10v-5H268.28a2.08,2.08,0,0,0-2.16,2v16a2.08,2.08,0,0,0,2.16,2h33.14"/><g class="cls-19"><g class="cls-19"><path class="cls-20" d="M276.83,171.86h1V177a2.12,2.12,0,0,1-.63,1.63,2.33,2.33,0,0,1-1.67.59,2.43,2.43,0,0,1-1.68-.55,2,2,0,0,1-.61-1.56h1a1.39,1.39,0,0,0,.34,1,1.34,1.34,0,0,0,1,.35,1.31,1.31,0,0,0,1-.38,1.5,1.5,0,0,0,.37-1Z"/><path class="cls-20" d="M281,176.84l.14,1,.2-.87,1.44-5.07h.81l1.4,5.07.2.88.16-1,1.13-5h1l-1.76,7.27h-.88l-1.49-5.3-.12-.55-.11.55-1.56,5.3h-.87l-1.76-7.27h1Z"/><path class="cls-20" d="M293.58,172.65h-2.33v6.48h-1v-6.48H288v-.79h5.62Z"/></g></g></g><circle class="cls-6" cx="287.49" cy="139.2" r="8.6"/><path class="cls-8" d="M283.64,138.06h.85a1.91,1.91,0,0,0,1.26-.42,1.45,1.45,0,0,0,.45-1.11,1.37,1.37,0,0,0-1.55-1.56,1.61,1.61,0,0,0-1.17.42,1.47,1.47,0,0,0-.44,1.1h-1.12a2.25,2.25,0,0,1,.77-1.75,2.79,2.79,0,0,1,2-.7,2.75,2.75,0,0,1,2,.67,2.38,2.38,0,0,1,.71,1.85,2,2,0,0,1-.37,1.12,2.28,2.28,0,0,1-1,.81,2.06,2.06,0,0,1,1.53,2.08,2.43,2.43,0,0,1-.78,1.9,2.91,2.91,0,0,1-2,.7,3,3,0,0,1-2-.68,2.25,2.25,0,0,1-.78-1.79H283a1.45,1.45,0,0,0,.46,1.13,1.73,1.73,0,0,0,1.23.42,1.7,1.7,0,0,0,1.25-.43,1.63,1.63,0,0,0,.43-1.23,1.5,1.5,0,0,0-.48-1.19,2.09,2.09,0,0,0-1.37-.42h-.85Z"/><path class="cls-8" d="M294.22,139.82a3.94,3.94,0,0,1-.69,2.43,2.24,2.24,0,0,1-1.87.92,2.29,2.29,0,0,1-1.93-.89l-.06.77h-1v-9.37h1.13v3.49a2.32,2.32,0,0,1,1.89-.85,2.26,2.26,0,0,1,1.89.91,4.11,4.11,0,0,1,.68,2.49Zm-1.13-.13a3,3,0,0,0-.44-1.78,1.48,1.48,0,0,0-1.28-.63,1.67,1.67,0,0,0-1.61,1v2.85a1.7,1.7,0,0,0,1.62,1,1.46,1.46,0,0,0,1.26-.63A3.25,3.25,0,0,0,293.09,139.69Z"/><circle class="cls-6" cx="404.34" cy="139.2" r="8.6"/><path class="cls-8" d="M400.49,138.06h.85a1.91,1.91,0,0,0,1.26-.42,1.45,1.45,0,0,0,.45-1.11A1.37,1.37,0,0,0,401.5,135a1.61,1.61,0,0,0-1.17.42,1.47,1.47,0,0,0-.44,1.1h-1.12a2.25,2.25,0,0,1,.77-1.75,2.83,2.83,0,0,1,2-.7,2.75,2.75,0,0,1,2,.67,2.38,2.38,0,0,1,.71,1.85,2,2,0,0,1-.37,1.12,2.28,2.28,0,0,1-1,.81,2.06,2.06,0,0,1,1.53,2.08,2.43,2.43,0,0,1-.78,1.9,2.92,2.92,0,0,1-2,.7,3,3,0,0,1-2-.68,2.25,2.25,0,0,1-.78-1.79h1.13a1.45,1.45,0,0,0,.46,1.13,1.72,1.72,0,0,0,1.22.42,1.7,1.7,0,0,0,1.26-.43,1.67,1.67,0,0,0,.43-1.23,1.5,1.5,0,0,0-.48-1.19,2.09,2.09,0,0,0-1.37-.42h-.85Z"/><path class="cls-8" d="M409.56,143.05a2.18,2.18,0,0,1-.16-.7,2.49,2.49,0,0,1-1.88.82,2.37,2.37,0,0,1-1.6-.55,1.79,1.79,0,0,1-.63-1.4,1.87,1.87,0,0,1,.79-1.6,3.62,3.62,0,0,1,2.2-.57h1.1v-.52a1.31,1.31,0,0,0-.35-.95,1.44,1.44,0,0,0-1-.35,1.63,1.63,0,0,0-1,.31.9.9,0,0,0-.41.74h-1.13a1.6,1.6,0,0,1,.35-1,2.35,2.35,0,0,1,1-.73,3.18,3.18,0,0,1,1.32-.27,2.62,2.62,0,0,1,1.79.57,2.05,2.05,0,0,1,.67,1.58v3a3.82,3.82,0,0,0,.23,1.45v.1Zm-1.87-.86a1.89,1.89,0,0,0,1-.28,1.62,1.62,0,0,0,.69-.71v-1.36h-.88c-1.38,0-2.08.41-2.08,1.22a1,1,0,0,0,.36.83A1.35,1.35,0,0,0,407.69,142.19Z"/></svg>